PathFileType	4	(X/Y/Z)	/Users/itak/Documents/Research/Walk-IL/dataset/trc/00532_00183.trc
DataRate	CameraRate	NumFrames	NumMarkers	Units	OrigDataRate	OrigDataStartFrame	OrigNumFrames
100.000000	100.000000	4	53	mm	100.000000	0	495
Frame#	Time	RPSI			LPSI			L3			STRN			T10			C7			CLAV			RBAK			LBAK			LSHO			LUPA			LAEL			LAOL			LWTS			LWPS			LFRA			LIFD			LHPS			LHTS			RSHO			RUPA			RAEL			RAOL			RWTS			RWPS			RFRA			RIFD			RHTS			RHPS			RBHD			LFHD			RFHD			LBHD			LHIP			RHIP			RASI			LASI			LKNE			LTHI			LANK			LTIP			LTOE			LMT1			LMT5			LHEE			RKNE			RTHI			RANK			RTIP			RTOE			RMT1			RMT5			RHEE			
		X1	Y1	Z1	X2	Y2	Z2	X3	Y3	Z3	X4	Y4	Z4	X5	Y5	Z5	X6	Y6	Z6	X7	Y7	Z7	X8	Y8	Z8	X9	Y9	Z9	X10	Y10	Z10	X11	Y11	Z11	X12	Y12	Z12	X13	Y13	Z13	X14	Y14	Z14	X15	Y15	Z15	X16	Y16	Z16	X17	Y17	Z17	X18	Y18	Z18	X19	Y19	Z19	X20	Y20	Z20	X21	Y21	Z21	X22	Y22	Z22	X23	Y23	Z23	X24	Y24	Z24	X25	Y25	Z25	X26	Y26	Z26	X27	Y27	Z27	X28	Y28	Z28	X29	Y29	Z29	X30	Y30	Z30	X31	Y31	Z31	X32	Y32	Z32	X33	Y33	Z33	X34	Y34	Z34	X35	Y35	Z35	X36	Y36	Z36	X37	Y37	Z37	X38	Y38	Z38	X39	Y39	Z39	X40	Y40	Z40	X41	Y41	Z41	X42	Y42	Z42	X43	Y43	Z43	X44	Y44	Z44	X45	Y45	Z45	X46	Y46	Z46	X47	Y47	Z47	X48	Y48	Z48	X49	Y49	Z49	X50	Y50	Z50	X51	Y51	Z51	X52	Y52	Z52	X53	Y53	Z53	

1	0	-1156.102294921875	971.7531127929688	-418.0542602539062	-1095.310546875	969.1788330078125	-525.9954223632812	-1134.309326171875	1033.49462890625	-480.4436645507812	-935.1986083984375	1204.582885742188	-389.125244140625	-1151.552368164062	1139.167236328125	-485.3814697265625	-1115.167236328125	1370.65625	-466.6827392578125	-970.4986572265625	1298.6748046875	-405.8931884765625	-1189.790771484375	1248.24658203125	-406.1484680175781	-1103.528686523438	1316.624755859375	-556.1625366210938	-988.8057861328125	1364.699584960938	-586.6368408203125	-979.6895141601562	1238.440795898438	-647.9014282226562	-964.4480590820312	1029.556030273438	-673.060791015625	-1054.98095703125	1020.403564453125	-632.0137939453125	-888.8784790039062	846.3447875976562	-620.2686767578125	-954.4052124023438	809.041748046875	-677.7992553710938	-948.056640625	945.7440185546875	-672.5948486328125	-873.1153564453125	693.6017456054688	-620.6112060546875	-929.9255981445312	756.2858276367188	-668.5099487304688	-873.1243896484375	769.5731811523438	-639.2722778320312	-1123.46044921875	1368.236938476562	-309.5777282714844	-1163.8525390625	1301.510009765625	-265.6381530761719	-1193.499389648438	1036.293579101562	-227.0945434570312	-1217.557373046875	1022.20654296875	-287.5879821777344	-1104.28857421875	834.1491088867188	-192.4654388427734	-1191.875	812.62841796875	-204.4463348388672	-1196.296264648438	982.325439453125	-218.7314910888672	-1105.863037109375	673.9398193359375	-184.6419677734375	-1108.734008789062	742.3236083984375	-162.4296264648438	-1174.33056640625	739.0281982421875	-189.1608428955078	-1119.949096679688	1526.631103515625	-385.2552490234375	-943.511962890625	1594.13818359375	-454.3756713867188	-1005.176452636719	1590.543701171875	-342.7314453125	-1056.299072265625	1525.632202148438	-531.1180419921875	-939.0430908203125	895.6934204101562	-590.2589111328125	-1123.723266601562	870.5192260742188	-260.4968566894531	-1003.057922363281	914.230712890625	-268.8254089355469	-891.9606323242188	927.373779296875	-483.1470031738281	-975.5374145507812	472.04150390625	-558.5131225585938	-938.6661376953125	628.8201904296875	-567.1396484375	-1077.830932617188	50.19939041137695	-581.3094482421875	-1012.507385253906	324.9552917480469	-576.6143188476562	-926.3480224609375	39.31320190429688	-440.9993286132812	-1010.464233398438	44.31725692749023	-446.4289855957031	-975.3671264648438	44.18257141113281	-541.5172729492188	-1146.648193359375	48.15156555175781	-545.1673583984375	-1112.519165039062	482.737548828125	-293.1215515136719	-1105.115844726562	740.9317626953125	-247.0731201171875	-1179.6748046875	52.57858276367188	-359.4156799316406	-1110.317504882812	337.3255310058594	-311.4480285644531	-980.0877075195312	42.28812789916992	-311.3123779296875	-1024.889770507812	47.17786407470703	-373.5322570800781	-1084.074584960938	49.19086837768555	-296.8837890625	-1205.89697265625	43.10123443603516	-425.0128784179688	
2	0.01	-1156.244018554688	971.7550659179688	-417.9888000488281	-1095.45361328125	969.2269287109375	-525.9600830078125	-1134.384399414062	1033.396850585938	-480.390869140625	-935.3052368164062	1204.633544921875	-389.1427001953125	-1151.752075195312	1139.13232421875	-485.3858337402344	-1115.4326171875	1370.603271484375	-466.6982421875	-970.6971435546875	1298.729248046875	-405.9403076171875	-1190.009643554688	1248.206909179688	-406.1412048339844	-1103.747802734375	1316.576538085938	-556.197998046875	-988.9976806640625	1364.690551757812	-586.7078247070312	-979.8743286132812	1238.391845703125	-647.9263916015625	-964.4596557617188	1029.512817382812	-672.9736938476562	-1055.00439453125	1020.353637695312	-631.9449462890625	-888.9099731445312	846.2891845703125	-620.1493530273438	-954.4876708984375	808.9583740234375	-677.6506958007812	-948.0646362304688	945.671875	-672.4803466796875	-875.7703247070312	692.008544921875	-619.25537109375	-929.9950561523438	756.2407836914062	-668.34619140625	-873.2177734375	769.5150146484375	-639.107666015625	-1123.679809570312	1368.243530273438	-309.6492309570312	-1164.029052734375	1301.484008789062	-265.7063293457031	-1193.559204101562	1036.258544921875	-227.1484985351562	-1217.599853515625	1022.1484375	-287.6434631347656	-1104.17138671875	834.15673828125	-192.5789031982422	-1191.730102539062	812.565185546875	-204.5629272460938	-1196.328491210938	982.2826538085938	-218.7717437744141	-1105.651123046875	673.9476318359375	-184.7437896728516	-1108.577270507812	742.3250732421875	-162.5305633544922	-1174.251708984375	738.9509887695312	-189.0905914306641	-1120.3349609375	1526.593505859375	-385.3482055664062	-943.9943237304688	1594.259399414062	-454.5199279785156	-1005.630554199219	1590.653686523438	-342.7978515625	-1056.633422851562	1525.61767578125	-531.2367553710938	-939.1943969726562	895.7267456054688	-590.2636108398438	-1123.833984375	870.5249633789062	-260.4959411621094	-1003.143859863281	914.2313232421875	-268.8453674316406	-892.0648193359375	927.387451171875	-483.1654052734375	-975.6102294921875	472.0596313476562	-558.5322875976562	-938.7697143554688	628.8433837890625	-567.1853637695312	-1077.837158203125	50.19702529907227	-581.3054809570312	-1012.556030273438	324.9600524902344	-576.6183471679688	-926.3518676757812	39.31345367431641	-440.9924621582031	-1010.472412109375	44.31318283081055	-446.4292602539062	-975.3778076171875	44.1926383972168	-541.5121459960938	-1146.6494140625	48.13305282592773	-545.1657104492188	-1112.644165039062	482.72607421875	-293.1449890136719	-1105.259155273438	740.920654296875	-247.0960693359375	-1179.675048828125	52.57004165649414	-359.4198608398438	-1110.40625	337.3253173828125	-311.4650573730469	-980.0892333984375	42.31290817260742	-311.3048706054688	-1024.9228515625	47.15316772460938	-373.5731201171875	-1084.078125	49.20901489257812	-296.890869140625	-1205.90185546875	43.06496429443359	-425.0123901367188	
3	0.02	-1156.422729492188	971.7542114257812	-417.9175720214844	-1095.630737304688	969.2734985351562	-525.9281616210938	-1134.489990234375	1033.280639648438	-480.33740234375	-935.4471435546875	1204.69921875	-389.1714477539062	-1152.009521484375	1139.091674804688	-485.3909606933594	-1115.759765625	1370.544555664062	-466.7260437011719	-970.9417114257812	1298.795166015625	-406.0005187988281	-1190.284790039062	1248.159790039062	-406.1297912597656	-1104.011108398438	1316.52197265625	-556.246337890625	-989.2381591796875	1364.681640625	-586.7931518554688	-980.1016235351562	1238.341918945312	-647.9650268554688	-964.4916381835938	1029.4658203125	-672.8689575195312	-1055.058959960938	1020.295532226562	-631.8594360351562	-888.9862060546875	846.2127075195312	-619.9982299804688	-954.5902099609375	808.86328125	-677.4658203125	-948.0889892578125	945.5846557617188	-672.344970703125	-878.3035888671875	690.5185546875	-617.9249877929688	-930.0897827148438	756.179931640625	-668.1541137695312	-873.3377075195312	769.4456176757812	-638.9022216796875	-1123.953979492188	1368.251342773438	-309.7386779785156	-1164.253784179688	1301.453857421875	-265.7890625	-1193.630249023438	1036.214721679688	-227.2155303955078	-1217.654541015625	1022.078186035156	-287.7049255371094	-1104.037841796875	834.1689453125	-192.7115325927734	-1191.553344726562	812.4922485351562	-204.6961517333984	-1196.364990234375	982.22900390625	-218.8247528076172	-1105.391967773438	673.9598999023438	-184.8693695068359	-1108.383544921875	742.32763671875	-162.6510620117188	-1174.14453125	738.8653564453125	-189.0175476074219	-1120.802124023438	1526.551391601562	-385.4716186523438	-944.5738525390625	1594.400268554688	-454.6941223144531	-1006.179016113281	1590.784057617188	-342.8851623535156	-1057.054931640625	1525.595092773438	-531.3779296875	-939.3837890625	895.756103515625	-590.2752685546875	-1123.963989257812	870.5289306640625	-260.4963073730469	-1003.254455566406	914.233642578125	-268.8683166503906	-892.20654296875	927.4082641601562	-483.1932678222656	-975.6937866210938	472.0830993652344	-558.5574340820312	-938.9053344726562	628.8739624023438	-567.2494506835938	-1077.844848632812	50.19341278076172	-581.30078125	-1012.632568359375	324.9568786621094	-576.630126953125	-926.3563842773438	39.31480407714844	-440.9860229492188	-1010.481750488281	44.30770111083984	-446.4276123046875	-975.3888549804688	44.20355224609375	-541.5061645507812	-1146.651611328125	48.1110725402832	-545.1637573242188	-1112.79638671875	482.7110595703125	-293.1744079589844	-1105.448120117188	740.9091796875	-247.1287994384766	-1179.6767578125	52.56044769287109	-359.424072265625	-1110.514282226562	337.3247680664062	-311.4826965332031	-980.0881958007812	42.34509658813477	-311.2965087890625	-1024.951293945312	47.11955642700195	-373.6260070800781	-1084.080200195312	49.22937393188477	-296.8989868164062	-1205.90625	43.01786041259766	-425.0111694335938	
4	0.03	-1156.63134765625	971.7496948242188	-417.8482666015625	-1095.833862304688	969.3123779296875	-525.9058227539062	-1134.630981445312	1033.15478515625	-480.2925109863281	-935.62255859375	1204.778930664062	-389.2132263183594	-1152.315063476562	1139.048461914062	-485.39794921875	-1116.132568359375	1370.485717773438	-466.7689514160156	-971.2201538085938	1298.868774414062	-406.0715637207031	-1190.603515625	1248.10888671875	-406.1158142089844	-1104.3046875	1316.465454101562	-556.306884765625	-989.5194091796875	1364.674682617188	-586.8877563476562	-980.3609619140625	1238.298706054688	-648.0188598632812	-964.5538940429688	1029.420288085938	-672.7542114257812	-1055.15478515625	1020.233337402344	-631.7623901367188	-889.1193237304688	846.1173095703125	-619.8211059570312	-954.708740234375	808.764892578125	-677.2546997070312	-948.1372680664062	945.4888916015625	-672.1988525390625	-880.454345703125	689.3021240234375	-616.758544921875	-930.2128295898438	756.108154296875	-667.9459838867188	-873.4822387695312	769.369140625	-638.6636962890625	-1124.271850585938	1368.260009765625	-309.8417053222656	-1164.519775390625	1301.421875	-265.8809509277344	-1193.707885742188	1036.164306640625	-227.2923126220703	-1217.72021484375	1021.999694824219	-287.7667541503906	-1103.898803710938	834.1864624023438	-192.853271484375	-1191.356201171875	812.4164428710938	-204.8318634033203	-1196.402465820312	982.167236328125	-218.8895568847656	-1105.099487304688	673.9774169921875	-185.0124359130859	-1108.161987304688	742.3316650390625	-162.7829284667969	-1174.005859375	738.7799682617188	-188.9586029052734	-1121.3232421875	1526.507690429688	-385.6219482421875	-945.2141723632812	1594.549926757812	-454.8881530761719	-1006.788452148438	1590.925537109375	-342.9923095703125	-1057.54541015625	1525.562622070312	-531.5322265625	-939.6023559570312	895.7763671875	-590.2947998046875	-1124.1044921875	870.5291137695312	-260.49853515625	-1003.387390136719	914.2384033203125	-268.8929138183594	-892.3850708007812	927.4387817382812	-483.2320251464844	-975.7816772460938	472.1122131347656	-558.58837890625	-939.0704956054688	628.9121704101562	-567.3316650390625	-1077.854125976562	50.18869018554688	-581.295654296875	-1012.744262695312	324.9396362304688	-576.654296875	-926.3610229492188	39.31713485717773	-440.9807434082031	-1010.492309570312	44.30110549926758	-446.4233093261719	-975.3989868164062	44.21475219726562	-541.5	-1146.654174804688	48.08759307861328	-545.16162109375	-1112.966064453125	482.6925964355469	-293.2085266113281	-1105.67724609375	740.8970336914062	-247.1687774658203	-1179.680297851562	52.55047225952148	-359.4278259277344	-1110.634521484375	337.323486328125	-311.4988708496094	-980.0844116210938	42.38420486450195	-311.2876281738281	-1024.971069335938	47.07894134521484	-373.6875915527344	-1084.080688476562	49.25055313110352	-296.9075927734375	-1205.909790039062	42.96195220947266	-425.0096130371094	
